<svg id="Capa_1" data-name="Capa 1" xmlns="http://www.w3.org/2000/svg" fill="white" viewBox="0 0 562.85 554.62">
  <defs>
    <style>
      .cls-1 {
        fill: none;
        stroke: #fff;
        stroke-miterlimit: 10;
        stroke-width: 10px;
      }
    </style>
  </defs>
  <title>healthTone</title>
  <polyline class="cls-1" points="71.45 509.93 5 509.93 273.47 6.68 541.94 509.93 478.15 509.93" />
  <polyline class="cls-1" points="76.77 432.05 129.93 432.05 334.61 6.68 557.89 432.05 500.39 432.05" />
  <path
    d="M407.74,323.92A46,46,0,0,0,396,292.33c-19.32-21.9-45.9-29.64-73.9-33s-54,4.54-77.76,18.3c-18.57,10.75-29.1,26.62-28.84,48.75.47,40.29,0,80.58,0,120.88,0,2.85.3,5.71.47,8.77h16.93c2.44,8.44,5.74,10.1,16.52,8.71,7.63-1,6.76-6.55,6.77-11.61,0-14.21,0-28.42,0-42.63v-9.08l.5,0a7.09,7.09,0,0,1-.26-.93s0-.06,0-.08a7.71,7.71,0,0,1-.12-.95v-.05a7.3,7.3,0,0,1,.16-2h0a5.34,5.34,0,0,1,.3-1h0a4,4,0,0,1,.22-.47,6.82,6.82,0,0,1,1.13-7.7q-1.14-16-1.87-32.07c-.24-5.33-.07-10.45-7.58-11-11.73-.88-14.46.71-16.54,9.75,0-10.84-.67-21.72.15-32.5,1.3-17,12.74-27.74,27.22-34.85,34.24-16.81,69.22-17,103.48-.24,17.53,8.57,29.62,21.69,27.85,42.8-.52,6.22-.08,12.52-.08,19-3.41-1.54-5.95-3.46-8.68-3.78-13-1.55-15.47.79-15.43,13.45,0,8.9.06,17.8,0,26.7a42,42,0,0,1-.53,5.34,6.54,6.54,0,0,1-2.46,6.43,6.68,6.68,0,0,1,.9,9.66,47.61,47.61,0,0,1,2,10.57c.48,12.92.19,25.87.13,38.8,0,4,1,7.06,5.53,8.16,9.54,2.33,14.76.06,18.63-8.21a76.4,76.4,0,0,1,9.21.06c6.32.77,8.15-1.49,8.09-7.74Q407.54,386.27,407.74,323.92Z"
    transform="translate(-2 -6.41)" />
  <path d="M213.63,355.61v99C197.93,450,184,426.9,183.69,405.8,183.38,384.39,197.24,360.76,213.63,355.61Z"
    transform="translate(-2 -6.41)" />
  <path d="M409.34,355.37c16.62,5.42,30.73,29.43,30.24,50.69-.49,20.85-14.77,44.19-30.24,48.67Z"
    transform="translate(-2 -6.41)" />
  <path
    d="M362.19,401.65c-3.61.44-5.69-1.32-7.08-4.53a55.54,55.54,0,0,0-3.59-6c-1.23,2.72-2.32,4.82-3.13,7-.92,2.48-2.41,3.66-5.34,3.41-3.16-.27-6.33,0-9.5-.12-1.74-.08-2.36.55-2.7,2.17-2.56,12.28-5.24,24.53-7.82,36.81-.32,1.52-.74,3.13-2.53,2.71-1-.23-2.09-1.8-2.38-2.92-3.82-14.58-7.51-29.18-11.21-43.79-2.75-10.86-5.45-21.72-8.19-32.59a3,3,0,0,0-1.15-1.71c-.74,4.53-1.52,9.05-2.22,13.58q-3.23,20.77-6.4,41.55a28.46,28.46,0,0,1-.86,5,13.42,13.42,0,0,1-2.23,3.13c-.93-.93-2.27-1.71-2.72-2.8-3.22-7.78-6.25-15.64-9.37-23.47a59.4,59.4,0,0,0-4.31-9.08c-.83,2.89-1.75,5.75-2.45,8.67-.45,1.9-1.51,2.62-3.48,2.59-3.26-.06-6.51.05-9.76.08l-.24-4.36.83-.05c2.76-.14,6.29.66,8.05-.69s1.81-4.83,2.57-7.39c.68-2.32,1.14-4.72,2-6.95a3.58,3.58,0,0,1,2.36-2c.59-.09,1.86,1.18,2.21,2.05,3.79,9.25,7.46,18.56,11.17,27.84a11,11,0,0,0,2.12,3.59c.53-3,1.11-6,1.57-9q4.18-27,8.33-54.06a2.68,2.68,0,0,1,.33-1.29c.6-.74,1.31-1.89,2-1.9a3.23,3.23,0,0,1,2.27,1.83c1.53,5.3,2.87,10.65,4.22,16q5.52,21.77,11,43.56c1.57,6.23,3.17,12.46,4.76,18.69a5.57,5.57,0,0,0,1.3,2.56q2-9.4,4.05-18.8c.79-3.68,1.62-7.35,2.3-11.05.38-2,1.43-2.83,3.57-2.75,3.45.12,6.89-.05,10.33.09,2,.08,3.23-.48,3.95-2.41a69.86,69.86,0,0,1,3.65-8c.56-1.07,1.81-2.71,2.51-2.57,1.16.22,2.38,1.55,3.13,2.67,1.81,2.74,3.26,5.68,5.07,8.41.57.87,1.81,1.35,2.75,2Z"
    transform="translate(-2 -6.41)" />
  <path d="M94.71,488.52v29.85h22.2V488.52h6v71.34h-6V526.41H94.71v33.45H88.79V488.52Z"
    transform="translate(-2 -6.41)" />
  <path d="M156.93,526.41H139.09v25.73H159v7.72h-25.8V488.52H158v7.72H139.09v22.55h17.84Z"
    transform="translate(-2 -6.41)" />
  <path
    d="M174.08,537.42l-4.76,22.44h-6.13l15.59-71.34h7.15l15.65,71.34h-6.33l-4.9-22.44Zm15-7.2-4.5-20.53c-1-4.66-1.7-8.9-2.38-13h-.14c-.68,4.23-1.43,8.57-2.31,12.91l-4.49,20.64Z"
    transform="translate(-2 -6.41)" />
  <path d="M208.32,488.52h5.92v63.62h19.61v7.72H208.32Z" transform="translate(-2 -6.41)" />
  <path d="M243.17,496.35h-14v-7.83h34v7.83h-14v63.51h-6Z" transform="translate(-2 -6.41)" />
  <path d="M274.21,488.52v29.85H296.4V488.52h6v71.34h-6V526.41H274.21v33.45h-5.92V488.52Z"
    transform="translate(-2 -6.41)" />
  <path d="M321.38,496.35H307.43v-7.83h34v7.83h-14v63.51h-6Z" transform="translate(-2 -6.41)" />
  <path
    d="M383.88,523.45c0,24.56-9.6,37.58-21.31,37.58-12.12,0-20.63-14.61-20.63-36.21,0-22.65,9.05-37.47,21.31-37.47C375.77,487.35,383.88,502.28,383.88,523.45Zm-35.61,1.16c0,15.25,5.31,28.9,14.64,28.9s14.7-13.44,14.7-29.64c0-14.18-4.76-29-14.63-29S348.27,509,348.27,524.61Z"
    transform="translate(-2 -6.41)" />
  <path
    d="M391.56,559.86V488.52H398l14.7,36.09c3.41,8.37,6.06,15.88,8.24,23.19l.14-.11c-.55-9.53-.68-18.21-.68-29.32V488.52H426v71.34h-6l-14.57-36.2c-3.2-7.94-6.26-16.09-8.58-23.82l-.2.11c.34,9,.47,17.57.47,29.43v30.48Z"
    transform="translate(-2 -6.41)" />
  <path d="M460.11,526.41H442.28v25.73h19.87v7.72h-25.8V488.52h24.78v7.72H442.28v22.55h17.83Z"
    transform="translate(-2 -6.41)" />
</svg>